<svg width="16" height="15" viewBox="0 0 16 15" fill="none" xmlns="http://www.w3.org/2000/svg">
<path d="M11.5169 8.12054H16C15.6629 11.9829 12.1798 15 8.01124 15C3.59551 15 0 11.6405 0 7.5C0 3.37019 3.59551 0 8.01124 0C12.1685 0 15.6517 3.00642 16 6.87946H6.34831C5.84269 6.87946 5.4382 6.50499 5.4382 6.03424C5.4382 5.56348 5.84269 5.18901 6.34831 5.18901H10.618C11.0225 5.18901 11.3483 4.87874 11.3483 4.50428V3.95863H6.40449C5.20225 3.95863 4.16854 4.83595 4.1236 5.95934C4.07865 7.14693 5.08989 8.12054 6.34831 8.12054H9.48315C9.97753 8.12054 10.3933 8.5057 10.3933 8.96576C10.3933 9.43652 9.98876 9.81098 9.48315 9.81098H5.21348C4.80899 9.81098 4.48315 10.1213 4.48315 10.4957V11.0521H9.47191C10.6966 11.0521 11.6966 10.1213 11.6966 8.96576C11.7079 8.67689 11.6404 8.38802 11.5169 8.12054Z" fill="#6BE0D9"/>
</svg>
